<svg width="24" height="24" fill="none" xmlns="http://www.w3.org/2000/svg"><defs><clipPath id="clip12665_591"><path id="instagram (3)" transform="translate(-.038)" fill="#fff" fill-opacity="0" d="M0 0h24v24H0z"/></clipPath></defs><path id="instagram (3)" transform="translate(-.038)" fill="#FFF" fill-opacity="0" d="M0 0h24v24H0z"/><g clip-path="url('#clip12665_591')" fill="#000" fill-opacity="1" fill-rule="nonzero"><path id="Vector" d="M17.46 0H6.45C2.87 0-.04 2.91-.04 6.49V17.5c0 3.58 2.91 6.49 6.49 6.49h11.01c3.58 0 6.5-2.91 6.5-6.49V6.49c0-3.58-2.92-6.49-6.5-6.49Zm-5.5 18.56c-3.62 0-6.57-2.95-6.57-6.56 0-3.62 2.95-6.57 6.57-6.57s6.56 2.95 6.56 6.57c0 3.61-2.94 6.56-6.56 6.56Zm6.72-11.58c-1.07 0-1.94-.87-1.94-1.94 0-1.07.87-1.94 1.94-1.94 1.07 0 1.94.87 1.94 1.94 0 1.07-.87 1.94-1.94 1.94Z"/><path id="Vector" d="M11.96 6.84C9.12 6.84 6.8 9.15 6.8 12c0 2.84 2.32 5.15 5.16 5.15a5.155 5.155 0 0 0 0-10.31ZM18.68 4.51c-.3 0-.54.24-.54.53a.536.536 0 0 0 1.07 0c0-.29-.24-.53-.53-.53Z"/></g></svg>